<svg width="34" height="34" viewBox="0 0 34 34" fill="none" xmlns="http://www.w3.org/2000/svg">
<path d="M8 25C8 26.105 8.895 27 10 27L24 27C25.105 27 26 26.105 26 25C26 23.895 25.105 23 24 23L10 23C8.895 23 8 23.895 8 25Z" fill="#5B6975" stroke="#5B6975" stroke-width="1.5" stroke-linecap="round" stroke-linejoin="round"/>
<path d="M8.00001 17C8.00001 18.105 8.89501 19 10 19L18.316 19C19.421 19 20.316 18.105 20.316 17C20.316 15.895 19.421 15 18.316 15L10 15C8.89501 15 8.00001 15.895 8.00001 17Z" fill="#5B6975" stroke="#5B6975" stroke-width="1.5" stroke-linecap="round" stroke-linejoin="round"/>
<path d="M7.99999 9C7.99999 10.105 8.89499 11 9.99999 11L12.632 11C13.737 11 14.632 10.105 14.632 9C14.632 7.895 13.737 7 12.632 7L9.99999 7C8.89499 7 7.99999 7.895 7.99999 9Z" fill="#5B6975" stroke="#5B6975" stroke-width="1.5" stroke-linecap="round" stroke-linejoin="round"/>
</svg>
